<svg width="800" height="800" viewBox="0 0 800 800" fill="none" xmlns="http://www.w3.org/2000/svg">
<g clip-path="url(#clip0_177_51)">
<path d="M100 300C100 245.6 113.333 195.467 140 149.6C166.667 103.733 203.2 67.4667 249.6 40.8C296 14.1333 346.133 0.533337 400 3.39694e-06C453.867 -0.53333 504 13.0667 550.4 40.8C596.8 68.5333 633.333 104.8 660 149.6C686.667 194.4 700 244.533 700 300C700 322.933 694.4 349.6 683.2 380C672 410.4 657.867 441.067 640.8 472C623.733 502.933 604.267 534.4 582.4 566.4C560.533 598.4 539.2 628.267 518.4 656C497.6 683.733 478.133 708.267 460 729.6C441.867 750.933 427.467 768.267 416.8 781.6L400 800C395.733 795.733 390.133 789.333 383.2 780.8C376.267 772.267 362.133 755.467 340.8 730.4C319.467 705.333 299.733 680.267 281.6 655.2C263.467 630.133 242.4 600.8 218.4 567.2C194.4 533.6 174.667 501.6 159.2 471.2C143.733 440.8 129.6 410.667 116.8 380.8C104 350.933 98.4001 324 100 300ZM200 300C200 355.467 219.467 402.667 258.4 441.6C297.333 480.533 344.533 500 400 500C455.467 500 502.667 480.533 541.6 441.6C580.533 402.667 600 355.467 600 300C600 244.533 580.533 197.6 541.6 159.2C502.667 120.8 455.467 101.067 400 100C344.533 98.9333 297.333 118.667 258.4 159.2C219.467 199.733 200 246.667 200 300Z" fill="white"/>
</g>
<defs>
<clipPath id="clip0_177_51">
<rect width="800" height="800" fill="white"/>
</clipPath>
</defs>
</svg>
