<svg width="667" height="667" viewBox="0 0 667 667" fill="none" xmlns="http://www.w3.org/2000/svg">
<path fill-rule="evenodd" clip-rule="evenodd" d="M0 133.333C0 59.6953 59.6953 0 133.333 0H533.333C606.97 0 666.667 59.6953 666.667 133.333V533.333C666.667 606.97 606.97 666.667 533.333 666.667H133.333C59.6953 666.667 0 606.97 0 533.333V133.333ZM133.333 66.6667C96.5143 66.6667 66.6667 96.5143 66.6667 133.333V533.333C66.6667 570.153 96.5143 600 133.333 600H333.333V366.667H300C281.59 366.667 266.667 351.743 266.667 333.333C266.667 314.923 281.59 300 300 300H333.333V250C333.333 185.567 385.567 133.333 450 133.333H470C488.41 133.333 503.333 148.257 503.333 166.667C503.333 185.076 488.41 200 470 200H450C422.387 200 400 222.386 400 250V300H470C488.41 300 503.333 314.923 503.333 333.333C503.333 351.743 488.41 366.667 470 366.667H400V600H533.333C570.153 600 600 570.153 600 533.333V133.333C600 96.5143 570.153 66.6667 533.333 66.6667H133.333Z" fill="white"/>
</svg>
