<svg width="687" height="699" viewBox="0 0 687 699" fill="none" xmlns="http://www.w3.org/2000/svg">
<path fill-rule="evenodd" clip-rule="evenodd" d="M343.667 539.879C447.094 539.879 530.94 454.568 530.94 349.333C530.94 244.098 447.094 158.788 343.667 158.788C240.239 158.788 156.394 244.098 156.394 349.333C156.394 454.568 240.239 539.879 343.667 539.879ZM343.667 476.364C412.618 476.364 468.515 419.489 468.515 349.333C468.515 279.176 412.618 222.303 343.667 222.303C274.715 222.303 218.818 279.176 218.818 349.333C218.818 419.489 274.715 476.364 343.667 476.364Z" fill="white"/>
<path d="M530.939 127.03C513.701 127.03 499.727 141.249 499.727 158.788C499.727 176.327 513.701 190.545 530.939 190.545C548.178 190.545 562.152 176.327 562.152 158.788C562.152 141.249 548.178 127.03 530.939 127.03Z" fill="white"/>
<path fill-rule="evenodd" clip-rule="evenodd" d="M20.7447 104.04C0.333252 144.8 0.333252 198.157 0.333252 304.873V393.794C0.333252 500.509 0.333252 553.868 20.7447 594.626C38.6992 630.48 67.3482 659.63 102.586 677.897C142.646 698.667 195.087 698.667 299.97 698.667H387.364C492.246 698.667 544.688 698.667 584.746 677.897C619.984 659.63 648.634 630.48 666.587 594.626C687 553.868 687 500.509 687 393.794V304.873C687 198.157 687 144.8 666.587 104.04C648.634 68.1861 619.984 39.0364 584.746 20.7682C544.688 0 492.246 0 387.364 0H299.97C195.087 0 142.646 0 102.586 20.7682C67.3482 39.0364 38.6992 68.1861 20.7447 104.04ZM387.364 63.5151H299.97C246.498 63.5151 210.149 63.5647 182.053 65.9001C154.685 68.1753 140.689 72.299 130.926 77.3605C107.434 89.5395 88.3349 108.973 76.3651 132.875C71.3905 142.809 67.3376 157.049 65.1015 184.895C62.8062 213.482 62.7575 250.467 62.7575 304.873V393.794C62.7575 448.201 62.8062 485.183 65.1015 513.771C67.3376 541.619 71.3905 555.859 76.3651 565.793C88.3349 589.694 107.434 609.126 130.926 621.305C140.689 626.367 154.685 630.493 182.053 632.766C210.149 635.101 246.498 635.151 299.97 635.151H387.364C440.836 635.151 477.183 635.101 505.28 632.766C532.65 630.493 546.645 626.367 556.408 621.305C579.899 609.126 598.997 589.694 610.967 565.793C615.942 555.859 619.997 541.619 622.232 513.771C624.526 485.183 624.576 448.201 624.576 393.794V304.873C624.576 250.467 624.526 213.482 622.232 184.895C619.997 157.049 615.942 142.809 610.967 132.875C598.997 108.973 579.899 89.5395 556.408 77.3605C546.645 72.299 532.65 68.1753 505.28 65.9001C477.183 63.5647 440.836 63.5151 387.364 63.5151Z" fill="white"/>
</svg>
