<svg width="800" height="800" viewBox="0 0 800 800" fill="none" xmlns="http://www.w3.org/2000/svg">
<path d="M76 131.333C76 416.68 307.32 648 592.667 648C605.541 648 618.305 647.53 630.943 646.603C645.446 645.54 652.698 645.01 659.299 641.21C664.766 638.063 669.951 632.483 672.692 626.8C676 619.94 676 611.937 676 595.933V502.023C676 488.563 676 481.833 673.785 476.067C671.828 470.97 668.65 466.433 664.53 462.853C659.866 458.8 653.541 456.5 640.893 451.9L533.998 413.03C519.282 407.68 511.924 405.003 504.943 405.457C498.788 405.857 492.864 407.96 487.831 411.527C482.124 415.57 478.096 422.283 470.039 435.713L442.667 481.333C354.337 441.33 282.73 369.63 242.667 281.333L288.287 253.961C301.717 245.904 308.43 241.876 312.473 236.169C316.04 231.136 318.143 225.212 318.543 219.057C318.997 212.076 316.32 204.718 310.97 190.002L272.1 83.107C267.5 70.4587 265.2 64.1343 261.147 59.47C257.567 55.3497 253.03 52.1717 247.933 50.215C242.167 48 235.437 48 221.977 48H128.067C112.063 48 104.06 48 97.2 51.3083C91.5167 54.0487 85.9367 59.2337 82.79 64.701C78.99 71.3023 78.46 78.554 77.3967 93.0577C76.47 105.695 76 118.459 76 131.333Z" stroke="white" stroke-width="66.6667" stroke-linecap="round" stroke-linejoin="round"/>
</svg>
