<svg width="310" height="317" viewBox="0 0 310 317" fill="none" xmlns="http://www.w3.org/2000/svg">
<rect x="42.2748" y="17.8663" width="229.91" height="270.428" rx="39" fill="#00C693"/>
<rect width="216.319" height="254.851" rx="39" transform="matrix(0.990458 -0.137817 0.132036 0.991245 33.2839 42.4278)" fill="#006F3D"/>
<g clip-path="url(#clip0_151_4)">
<path d="M113.298 160.765C119.475 159.062 125.927 158.67 132.257 159.615C138.587 160.559 144.663 162.823 150.106 166.26C155.549 169.695 160.245 174.235 163.904 179.598C167.564 184.96 170.111 191.033 171.386 197.44M110.936 124.917C120.819 122.192 131.142 121.567 141.27 123.077C151.398 124.588 161.115 128.204 169.822 133.702C178.53 139.2 186.039 146.461 191.895 155.042C197.75 163.622 201.827 173.34 203.867 183.592M101.175 87.9508C115.999 83.8642 131.484 82.9252 146.676 85.1916C161.868 87.4581 176.441 92.8754 189.502 101.122C202.565 109.369 213.843 120.271 222.627 133.141C231.41 146.012 237.519 160.591 240.579 175.969M120.546 215.104C116.155 212.31 114.812 206.407 117.545 201.919C120.279 197.431 126.055 196.058 130.446 198.852C134.837 201.646 136.181 207.549 133.447 212.037C130.713 216.525 124.938 217.898 120.546 215.104Z" stroke="white" stroke-width="14.5833" stroke-linecap="round" stroke-linejoin="round"/>
<ellipse cx="125.5" cy="206.5" rx="2.5" ry="3.5" fill="white"/>
</g>
<defs>
<clipPath id="clip0_151_4">
<rect width="226.169" height="228.358" fill="white" transform="matrix(0.843689 0.536832 -0.520208 0.85404 119.184 0)"/>
</clipPath>
</defs>
</svg>
