<svg width="369" height="416" viewBox="0 0 369 416" fill="none" xmlns="http://www.w3.org/2000/svg">
<g clip-path="url(#clip0_155_5)">
<path d="M227.312 0C289.885 0 346.616 23.8109 387.744 62.3072C429.064 100.982 454.624 154.425 454.624 213.463C454.624 255.854 441.444 295.373 418.712 328.62C395.356 362.777 361.867 390.284 322.226 407.416L306.829 414.071V388.572H152.057V415.525L136.876 409.333C96.0874 392.7 61.4809 365.126 37.2677 330.54C13.7044 296.882 0 256.659 0 213.463C0 154.425 25.56 100.982 66.8807 62.3077C108.009 23.8117 164.739 0.000431255 227.312 0.000431255V0ZM372.735 78.349C335.594 43.5847 284.182 22.082 227.312 22.082C170.443 22.082 119.031 43.5847 81.8896 78.349C44.938 112.933 22.0815 160.705 22.0815 213.463C22.0815 252.056 34.2942 287.952 55.2933 317.946C73.9968 344.662 99.6931 366.759 129.975 381.992V366.49H328.91V379.821C357.947 364.36 382.557 342.458 400.513 316.198C420.788 286.548 432.542 251.294 432.542 213.462C432.542 160.705 409.686 112.933 372.734 78.3486L372.735 78.349Z" fill="white"/>
<path d="M157.009 295.74H300.715C307.988 295.74 314.605 298.72 319.406 303.518H319.438C324.235 308.315 327.216 314.944 327.216 322.241V385.812H133.801V318.948C133.801 312.558 136.411 306.752 140.612 302.551C144.814 298.349 150.619 295.739 157.009 295.739L157.009 295.74ZM300.715 312.301H157.009C155.188 312.301 153.526 313.052 152.32 314.258C151.113 315.465 150.362 317.127 150.362 318.948V369.25H310.654V322.24C310.654 319.514 309.533 317.028 307.73 315.225L307.745 315.209C305.945 313.416 303.455 312.301 300.715 312.301V312.301Z" fill="white"/>
<path d="M170.828 253.834H297.021V312.301H162.547V253.834H170.828ZM280.459 270.395H179.109V295.739H280.459V270.395Z" fill="white"/>
<path d="M114.634 164.475C122.915 164.475 130.446 167.553 135.931 172.529C141.548 177.627 145.027 184.71 145.027 192.564C145.027 200.415 141.548 207.501 135.931 212.599C130.446 217.575 122.915 220.653 114.634 220.653C106.353 220.653 98.8224 217.575 93.3377 212.599C87.7202 207.501 84.2417 200.415 84.2417 192.564C84.2417 184.71 87.7202 177.627 93.3377 172.529C98.822 167.553 106.353 164.475 114.634 164.475ZM128.513 180.681C124.997 177.49 120.092 175.516 114.634 175.516C109.176 175.516 104.271 177.49 100.755 180.681C97.3747 183.748 95.2827 187.954 95.2827 192.564C95.2827 197.175 97.3747 201.38 100.755 204.446C104.271 207.637 109.176 209.612 114.634 209.612C120.092 209.612 124.997 207.637 128.513 204.446C131.894 201.38 133.986 197.175 133.986 192.564C133.986 187.954 131.894 183.748 128.513 180.681Z" fill="white"/>
<path d="M146.253 88.5079C154.534 88.5079 162.065 91.5858 167.55 96.5616C173.167 101.659 176.646 108.743 176.646 116.596C176.646 124.448 173.167 131.534 167.55 136.632C162.065 141.607 154.534 144.685 146.253 144.685C137.973 144.685 130.442 141.607 124.957 136.632C119.339 131.534 115.861 124.448 115.861 116.596C115.861 108.743 119.339 101.659 124.957 96.5616C130.441 91.5853 137.973 88.5079 146.253 88.5079ZM160.133 104.714C156.617 101.523 151.711 99.5485 146.253 99.5485C140.796 99.5485 135.89 101.523 132.374 104.714C128.994 107.781 126.902 111.987 126.902 116.596C126.902 121.208 128.994 125.413 132.374 128.479C135.89 131.67 140.796 133.645 146.253 133.645C151.711 133.645 156.617 131.67 160.133 128.479C163.512 125.413 165.605 121.208 165.605 116.596C165.605 111.987 163.512 107.781 160.133 104.714Z" fill="white"/>
<path d="M232.767 71.6851C241.048 71.6851 248.579 74.763 254.063 79.7388C259.681 84.8366 263.159 91.92 263.159 99.7736C263.159 107.625 259.681 114.711 254.063 119.809C248.579 124.785 241.048 127.862 232.767 127.862C224.486 127.862 216.955 124.785 211.47 119.809C205.853 114.711 202.374 107.625 202.374 99.7736C202.374 91.92 205.853 84.8366 211.47 79.7388C216.955 74.7625 224.486 71.6851 232.767 71.6851ZM246.646 87.8908C243.13 84.7004 238.225 82.7256 232.767 82.7256C227.309 82.7256 222.404 84.7004 218.888 87.8908C215.507 90.9579 213.415 95.1643 213.415 99.7736C213.415 104.385 215.507 108.59 218.888 111.656C222.404 114.847 227.309 116.822 232.767 116.822C238.225 116.822 243.13 114.847 246.646 111.656C250.026 108.59 252.118 104.385 252.118 99.7736C252.118 95.1639 250.026 90.9579 246.646 87.8908Z" fill="white"/>
<path d="M312.072 86.1041C320.352 86.1041 327.884 89.182 333.368 94.1582C338.986 99.2561 342.464 106.339 342.464 114.193C342.464 122.045 338.986 129.13 333.368 134.228C327.884 139.204 320.352 142.282 312.072 142.282C303.791 142.282 296.26 139.204 290.776 134.228C285.158 129.13 281.68 122.045 281.68 114.193C281.68 106.339 285.158 99.2561 290.776 94.1582C296.26 89.182 303.791 86.1041 312.072 86.1041ZM325.951 102.31C322.435 99.1198 317.53 97.1451 312.072 97.1451C306.614 97.1451 301.708 99.1198 298.193 102.31C294.813 105.377 292.721 109.583 292.721 114.193C292.721 118.804 294.813 123.009 298.193 126.076C301.708 129.267 306.614 131.241 312.072 131.241C317.53 131.241 322.435 129.267 325.951 126.076C329.331 123.009 331.423 118.804 331.423 114.193C331.423 109.583 329.331 105.377 325.951 102.31Z" fill="white"/>
<path d="M348.119 160.602C356.4 160.602 363.931 163.68 369.416 168.656C375.033 173.754 378.512 180.838 378.512 188.691C378.512 196.543 375.033 203.628 369.416 208.726C363.931 213.702 356.4 216.78 348.119 216.78C339.839 216.78 332.308 213.702 326.823 208.726C321.205 203.628 317.727 196.543 317.727 188.691C317.727 180.838 321.205 173.754 326.823 168.656C332.307 163.68 339.839 160.602 348.119 160.602ZM361.999 176.809C358.483 173.618 353.577 171.643 348.119 171.643C342.662 171.643 337.756 173.618 334.24 176.809C330.86 179.875 328.768 184.082 328.768 188.691C328.768 193.302 330.86 197.507 334.24 200.574C337.756 203.765 342.662 205.739 348.119 205.739C353.577 205.739 358.483 203.765 361.999 200.574C365.378 197.507 367.471 193.302 367.471 188.691C367.471 184.082 365.378 179.875 361.999 176.809Z" fill="white"/>
<path d="M137.252 204.861L173.678 256.594H196.455L191.334 176.386L158.719 136.804L167.216 129.816L202.105 172.16L207.496 256.594H224.338L225.666 114.149L236.663 114.237L235.335 256.594H256.085V174.832L291.699 128.135L300.455 134.82L267.126 178.52L267.854 256.594H286.044L327.676 202.541L336.389 209.27L291.436 267.635H167.977L128.24 211.202L137.252 204.861Z" fill="white"/>
</g>
<defs>
<clipPath id="clip0_155_5">
<rect width="454.624" height="415.525" fill="white"/>
</clipPath>
</defs>
</svg>
