<!DOCTYPE svg PUBLIC "-//W3C//DTD SVG 1.1//EN" "http://www.w3.org/Graphics/SVG/1.1/DTD/svg11.dtd">
<!-- Uploaded to: SVG Repo, www.svgrepo.com, Transformed by: SVG Repo Mixer Tools -->
<svg fill="#fff" height="800px" width="800px" version="1.1" id="Layer_1" xmlns="http://www.w3.org/2000/svg" xmlns:xlink="http://www.w3.org/1999/xlink" viewBox="0 0 501.333 501.333" xml:space="preserve" stroke="#fff">
<g id="SVGRepo_bgCarrier" stroke-width="0"/>
<g id="SVGRepo_tracerCarrier" stroke-linecap="round" stroke-linejoin="round"/>
<g id="SVGRepo_iconCarrier"> <g> <g> <path d="M478.933,229.333H464C453.333,118.4,363.733,0,250.667,0S48,118.4,36.267,229.333H21.333C9.6,229.333,0,238.933,0,250.667 S10.667,272,22.4,272h456.533c11.733,0,21.333-9.6,21.333-21.333S490.667,229.333,478.933,229.333z M222.933,44.8 c9.6-2.133,18.133-3.2,27.733-3.2c9.6,0,18.133,1.067,27.733,3.2v92.8h-55.467V44.8z M80,229.333 c7.467-64,45.867-132.267,100.267-166.4v96c0,11.733,9.6,21.333,21.333,21.333h98.133c11.733,0,21.333-9.6,21.333-21.333v-96 c54.4,34.133,93.867,102.4,100.267,166.4H80z"/> </g> </g> <g> <g> <path d="M480,458.667h-50.133l-19.2-32l19.2-32H480c11.733,0,21.333-9.6,21.333-21.333S491.733,352,480,352h-61.867 c-7.467,0-13.867,4.267-18.133,10.667l-24.533,42.667h-249.6l-24.533-42.667C97.067,356.267,90.667,352,83.2,352H21.334 C9.6,352,0,361.6,0,373.333s9.6,21.333,21.333,21.333h50.133l19.2,32l-19.2,32H21.334C9.6,458.667,0,468.267,0,480 s9.6,21.333,21.333,21.333H83.2c7.467,0,13.867-4.267,18.133-10.667L125.867,448h249.6L400,490.667 c4.267,6.4,10.667,10.667,18.133,10.667H480c11.733,0,21.333-9.6,21.333-21.333S491.733,458.667,480,458.667z"/> </g> </g> </g>
</svg>