<!DOCTYPE svg PUBLIC "-//W3C//DTD SVG 1.1//EN" "http://www.w3.org/Graphics/SVG/1.1/DTD/svg11.dtd">
<!-- Uploaded to: SVG Repo, www.svgrepo.com, Transformed by: SVG Repo Mixer Tools -->
<svg fill="#ffff" width="800px" height="800px" viewBox="0 0 64 64" data-name="Layer 1" id="Layer_1" xmlns="http://www.w3.org/2000/svg" stroke="#ffff">
<g id="SVGRepo_bgCarrier" stroke-width="0"/>
<g id="SVGRepo_tracerCarrier" stroke-linecap="round" stroke-linejoin="round"/>
<g id="SVGRepo_iconCarrier">
<path d="M48.58,53.17H15.42a5.1,5.1,0,0,1-5.09-5.09V35.94a5.1,5.1,0,0,1,5.09-5.09H48.58a5.1,5.1,0,0,1,5.09,5.09V48.08A5.1,5.1,0,0,1,48.58,53.17ZM15.42,34.85a1.09,1.09,0,0,0-1.09,1.09V48.08a1.09,1.09,0,0,0,1.09,1.09H48.58a1.09,1.09,0,0,0,1.09-1.09V35.94a1.09,1.09,0,0,0-1.09-1.09Z"/>
<path d="M42.31,44H29.69a2,2,0,0,1,0-4H42.31a2,2,0,0,1,0,4Z"/>
<path d="M20.92,44h-.26a2,2,0,0,1,0-4h.26a2,2,0,0,1,0,4Z"/>
<path d="M46.85,34.71a2,2,0,0,1-2-2V10.59a2,2,0,1,1,4,0V32.71A2,2,0,0,1,46.85,34.71Z"/>
<path d="M46.85,55.41a2,2,0,0,1-2-2V51.17a2,2,0,0,1,4,0v2.24A2,2,0,0,1,46.85,55.41Z"/>
<path d="M17.15,34.71a2,2,0,0,1-2-2V21.65a2,2,0,0,1,4,0V32.71A2,2,0,0,1,17.15,34.71Z"/>
<path d="M17.15,55.41a2,2,0,0,1-2-2V51.17a2,2,0,0,1,4,0v2.24A2,2,0,0,1,17.15,55.41Z"/>
<path d="M28.2,27.62a2,2,0,0,1-1.13-.34,2,2,0,0,1-.52-2.78A6.59,6.59,0,0,1,32,21.61a2,2,0,0,1,0,4,2.62,2.62,0,0,0-2.15,1.14A2,2,0,0,1,28.2,27.62Z"/>
<path d="M23.42,23.65a2,2,0,0,1-1.65-3.13A12.38,12.38,0,0,1,32,15.11a2,2,0,0,1,0,4,8.39,8.39,0,0,0-6.93,3.67A2,2,0,0,1,23.42,23.65Z"/>
<path d="M35.8,27.62a2,2,0,0,1-1.65-.87A2.62,2.62,0,0,0,32,25.61a2,2,0,0,1,0-4,6.59,6.59,0,0,1,5.45,2.89,2,2,0,0,1-.52,2.78A2,2,0,0,1,35.8,27.62Z"/>
<path d="M40.58,23.65a2,2,0,0,1-1.65-.87A8.39,8.39,0,0,0,32,19.11a2,2,0,0,1,0-4,12.38,12.38,0,0,1,10.23,5.41,2,2,0,0,1-1.65,3.13Z"/>
</g>
</svg>